<?xml version="1.0" encoding="UTF-8" standalone="no"?><svg xmlns="http://www.w3.org/2000/svg" xmlns:xlink="http://www.w3.org/1999/xlink" contentStyleType="text/css" height="2187px" preserveAspectRatio="none" style="width:1509px;height:2187px;background:#FFFFFF;" version="1.1" viewBox="0 0 1509 2187" width="1509px" zoomAndPan="magnify"><defs/><g><!--MD5=[b6dcce5e5ef3c84b0b048d11301373dd]
class Game--><g id="elem_Game"><rect codeLine="2" fill="#F1F1F1" height="153.6563" id="Game" rx="2.5" ry="2.5" style="stroke:#181818;stroke-width:0.5;" width="161" x="568.5" y="7"/><ellipse cx="625.75" cy="23" fill="#ADD1B2" rx="11" ry="11" style="stroke:#181818;stroke-width:1.0;"/><path d="M628.5156,18.875 Q628.6719,18.6563 628.8594,18.5469 Q629.0469,18.4375 629.2656,18.4375 Q629.6406,18.4375 629.875,18.7031 Q630.1094,18.9531 630.1094,19.5625 L630.1094,21.0156 Q630.1094,21.625 629.875,21.8906 Q629.6406,22.1563 629.2656,22.1563 Q628.9219,22.1563 628.7188,21.9531 Q628.5156,21.7656 628.4063,21.25 Q628.3594,20.8906 628.1719,20.7031 Q627.8438,20.3281 627.2344,20.1094 Q626.625,19.8906 626,19.8906 Q625.2344,19.8906 624.5938,20.2188 Q623.9688,20.5469 623.4688,21.2969 Q622.9844,22.0469 622.9844,23.0781 L622.9844,24.1719 Q622.9844,25.4063 623.875,26.2344 Q624.7656,27.0469 626.3594,27.0469 Q627.2969,27.0469 627.9531,26.7969 Q628.3438,26.6406 628.7656,26.2031 Q629.0313,25.9375 629.1719,25.8594 Q629.3281,25.7813 629.5313,25.7813 Q629.8594,25.7813 630.1094,26.0469 Q630.375,26.2969 630.375,26.6406 Q630.375,26.9844 630.0313,27.3906 Q629.5313,27.9688 628.7344,28.2969 Q627.6563,28.75 626.3594,28.75 Q624.8438,28.75 623.6406,28.125 Q622.6563,27.625 621.9688,26.5625 Q621.2813,25.4844 621.2813,24.2031 L621.2813,23.0469 Q621.2813,21.7188 621.8906,20.5781 Q622.5156,19.4219 623.6094,18.8125 Q624.7031,18.1875 625.9375,18.1875 Q626.6719,18.1875 627.3125,18.3594 Q627.9688,18.5156 628.5156,18.875 Z " fill="#000000"/><text fill="#000000" font-family="sans-serif" font-size="14" lengthAdjust="spacing" textLength="38" x="646.25" y="28.7285">Game</text><line style="stroke:#181818;stroke-width:0.5;" x1="569.5" x2="728.5" y1="39" y2="39"/><line style="stroke:#181818;stroke-width:0.5;" x1="569.5" x2="728.5" y1="47" y2="47"/><ellipse cx="579.5" cy="61.3047" fill="#84BE84" rx="3" ry="3" style="stroke:#038048;stroke-width:1.0;"/><text fill="#000000" font-family="sans-serif" font-size="14" lengthAdjust="spacing" text-decoration="underline" textLength="98" x="588.5" y="65.5332">void main(args)</text><rect fill="#F24D5C" height="6" style="stroke:#C82930;stroke-width:1.0;" width="6" x="576.5" y="75.9141"/><text fill="#000000" font-family="sans-serif" font-size="14" lengthAdjust="spacing" textLength="48" x="588.5" y="83.1426">Game()</text><rect fill="#F24D5C" height="6" style="stroke:#C82930;stroke-width:1.0;" width="6" x="576.5" y="93.5234"/><text fill="#000000" font-family="sans-serif" font-size="14" lengthAdjust="spacing" textLength="72" x="588.5" y="100.752">void reset()</text><rect fill="#F24D5C" height="6" style="stroke:#C82930;stroke-width:1.0;" width="6" x="576.5" y="111.1328"/><text fill="#000000" font-family="sans-serif" font-size="14" lengthAdjust="spacing" textLength="111" x="588.5" y="118.3613">void playGames()</text><rect fill="#F24D5C" height="6" style="stroke:#C82930;stroke-width:1.0;" width="6" x="576.5" y="128.7422"/><text fill="#000000" font-family="sans-serif" font-size="14" lengthAdjust="spacing" textLength="104" x="588.5" y="135.9707">void playGame()</text><rect fill="#F24D5C" height="6" style="stroke:#C82930;stroke-width:1.0;" width="6" x="576.5" y="146.3516"/><text fill="#000000" font-family="sans-serif" font-size="14" lengthAdjust="spacing" textLength="135" x="588.5" y="153.5801">boolean isResumed()</text></g><!--MD5=[d93cf99d2b92276f27fe8dbf15140505]
class YesNoDialog--><g id="elem_YesNoDialog"><rect codeLine="11" fill="#F1F1F1" height="136.0469" id="YesNoDialog" rx="2.5" ry="2.5" style="stroke:#181818;stroke-width:0.5;" width="193" x="320.5" y="256.5"/><ellipse cx="372.25" cy="272.5" fill="#ADD1B2" rx="11" ry="11" style="stroke:#181818;stroke-width:1.0;"/><path d="M375.0156,268.375 Q375.1719,268.1563 375.3594,268.0469 Q375.5469,267.9375 375.7656,267.9375 Q376.1406,267.9375 376.375,268.2031 Q376.6094,268.4531 376.6094,269.0625 L376.6094,270.5156 Q376.6094,271.125 376.375,271.3906 Q376.1406,271.6563 375.7656,271.6563 Q375.4219,271.6563 375.2188,271.4531 Q375.0156,271.2656 374.9063,270.75 Q374.8594,270.3906 374.6719,270.2031 Q374.3438,269.8281 373.7344,269.6094 Q373.125,269.3906 372.5,269.3906 Q371.7344,269.3906 371.0938,269.7188 Q370.4688,270.0469 369.9688,270.7969 Q369.4844,271.5469 369.4844,272.5781 L369.4844,273.6719 Q369.4844,274.9063 370.375,275.7344 Q371.2656,276.5469 372.8594,276.5469 Q373.7969,276.5469 374.4531,276.2969 Q374.8438,276.1406 375.2656,275.7031 Q375.5313,275.4375 375.6719,275.3594 Q375.8281,275.2813 376.0313,275.2813 Q376.3594,275.2813 376.6094,275.5469 Q376.875,275.7969 376.875,276.1406 Q376.875,276.4844 376.5313,276.8906 Q376.0313,277.4688 375.2344,277.7969 Q374.1563,278.25 372.8594,278.25 Q371.3438,278.25 370.1406,277.625 Q369.1563,277.125 368.4688,276.0625 Q367.7813,274.9844 367.7813,273.7031 L367.7813,272.5469 Q367.7813,271.2188 368.3906,270.0781 Q369.0156,268.9219 370.1094,268.3125 Q371.2031,267.6875 372.4375,267.6875 Q373.1719,267.6875 373.8125,267.8594 Q374.4688,268.0156 375.0156,268.375 Z " fill="#000000"/><text fill="#000000" font-family="sans-serif" font-size="14" lengthAdjust="spacing" textLength="81" x="392.75" y="278.2285">YesNoDialog</text><line style="stroke:#181818;stroke-width:0.5;" x1="321.5" x2="512.5" y1="288.5" y2="288.5"/><rect fill="none" height="6" style="stroke:#C82930;stroke-width:1.0;" width="6" x="328.5" y="299.8047"/><text fill="#000000" font-family="sans-serif" font-size="14" lengthAdjust="spacing" textLength="90" x="340.5" y="307.0332">String answer;</text><line style="stroke:#181818;stroke-width:0.5;" x1="321.5" x2="512.5" y1="314.1094" y2="314.1094"/><ellipse cx="331.5" cy="328.4141" fill="#84BE84" rx="3" ry="3" style="stroke:#038048;stroke-width:1.0;"/><text fill="#000000" font-family="sans-serif" font-size="14" lengthAdjust="spacing" textLength="167" x="340.5" y="332.6426">void read(String message)</text><ellipse cx="331.5" cy="346.0234" fill="#84BE84" rx="3" ry="3" style="stroke:#038048;stroke-width:1.0;"/><text fill="#000000" font-family="sans-serif" font-size="14" lengthAdjust="spacing" textLength="141" x="340.5" y="350.252">boolean isAffirmative()</text><rect fill="#F24D5C" height="6" style="stroke:#C82930;stroke-width:1.0;" width="6" x="328.5" y="360.6328"/><text fill="#000000" font-family="sans-serif" font-size="14" lengthAdjust="spacing" textLength="108" x="340.5" y="367.8613">char getAnswer()</text><ellipse cx="331.5" cy="381.2422" fill="#84BE84" rx="3" ry="3" style="stroke:#038048;stroke-width:1.0;"/><text fill="#000000" font-family="sans-serif" font-size="14" lengthAdjust="spacing" textLength="130" x="340.5" y="385.4707">boolean isNegative()</text></g><!--MD5=[dd91eae41778c45e12552e5329e240e8]
class Turn--><g id="elem_Turn"><rect codeLine="19" fill="#F1F1F1" height="171.2656" id="Turn" rx="2.5" ry="2.5" style="stroke:#181818;stroke-width:0.5;" width="201" x="548.5" y="239"/><ellipse cx="629.75" cy="255" fill="#ADD1B2" rx="11" ry="11" style="stroke:#181818;stroke-width:1.0;"/><path d="M632.5156,250.875 Q632.6719,250.6563 632.8594,250.5469 Q633.0469,250.4375 633.2656,250.4375 Q633.6406,250.4375 633.875,250.7031 Q634.1094,250.9531 634.1094,251.5625 L634.1094,253.0156 Q634.1094,253.625 633.875,253.8906 Q633.6406,254.1563 633.2656,254.1563 Q632.9219,254.1563 632.7188,253.9531 Q632.5156,253.7656 632.4063,253.25 Q632.3594,252.8906 632.1719,252.7031 Q631.8438,252.3281 631.2344,252.1094 Q630.625,251.8906 630,251.8906 Q629.2344,251.8906 628.5938,252.2188 Q627.9688,252.5469 627.4688,253.2969 Q626.9844,254.0469 626.9844,255.0781 L626.9844,256.1719 Q626.9844,257.4063 627.875,258.2344 Q628.7656,259.0469 630.3594,259.0469 Q631.2969,259.0469 631.9531,258.7969 Q632.3438,258.6406 632.7656,258.2031 Q633.0313,257.9375 633.1719,257.8594 Q633.3281,257.7813 633.5313,257.7813 Q633.8594,257.7813 634.1094,258.0469 Q634.375,258.2969 634.375,258.6406 Q634.375,258.9844 634.0313,259.3906 Q633.5313,259.9688 632.7344,260.2969 Q631.6563,260.75 630.3594,260.75 Q628.8438,260.75 627.6406,260.125 Q626.6563,259.625 625.9688,258.5625 Q625.2813,257.4844 625.2813,256.2031 L625.2813,255.0469 Q625.2813,253.7188 625.8906,252.5781 Q626.5156,251.4219 627.6094,250.8125 Q628.7031,250.1875 629.9375,250.1875 Q630.6719,250.1875 631.3125,250.3594 Q631.9688,250.5156 632.5156,250.875 Z " fill="#000000"/><text fill="#000000" font-family="sans-serif" font-size="14" lengthAdjust="spacing" textLength="30" x="650.25" y="260.7285">Turn</text><line style="stroke:#181818;stroke-width:0.5;" x1="549.5" x2="748.5" y1="271" y2="271"/><text fill="#000000" font-family="sans-serif" font-size="14" lengthAdjust="spacing" text-decoration="underline" textLength="175" x="568.5" y="289.5332">int NUMBER_PLAYERS = 2;</text><rect fill="none" height="6" style="stroke:#C82930;stroke-width:1.0;" width="6" x="556.5" y="299.9141"/><text fill="#000000" font-family="sans-serif" font-size="14" lengthAdjust="spacing" textLength="100" x="568.5" y="307.1426">int activePlayer;</text><line style="stroke:#181818;stroke-width:0.5;" x1="549.5" x2="748.5" y1="314.2188" y2="314.2188"/><text fill="#000000" font-family="sans-serif" font-size="14" lengthAdjust="spacing" textLength="77" x="554.5" y="332.752">Turn(board)</text><text fill="#000000" font-family="sans-serif" font-size="14" lengthAdjust="spacing" textLength="72" x="554.5" y="350.3613">void reset()</text><text fill="#000000" font-family="sans-serif" font-size="14" lengthAdjust="spacing" textLength="109" x="554.5" y="367.9707">void dropToken()</text><text fill="#000000" font-family="sans-serif" font-size="14" lengthAdjust="spacing" textLength="109" x="554.5" y="385.5801">void writeResult()</text><text fill="#000000" font-family="sans-serif" font-size="14" lengthAdjust="spacing" textLength="152" x="554.5" y="403.1895">Player getActivePlayer()</text></g><!--MD5=[e2fea1f2bd692924f318492efea2144e]
class BoundedIntDialog--><g id="elem_BoundedIntDialog"><rect codeLine="29" fill="#F1F1F1" height="100.8281" id="BoundedIntDialog" rx="2.5" ry="2.5" style="stroke:#181818;stroke-width:0.5;" width="230" x="7" y="672"/><ellipse cx="61.75" cy="688" fill="#ADD1B2" rx="11" ry="11" style="stroke:#181818;stroke-width:1.0;"/><path d="M64.5156,683.875 Q64.6719,683.6563 64.8594,683.5469 Q65.0469,683.4375 65.2656,683.4375 Q65.6406,683.4375 65.875,683.7031 Q66.1094,683.9531 66.1094,684.5625 L66.1094,686.0156 Q66.1094,686.625 65.875,686.8906 Q65.6406,687.1563 65.2656,687.1563 Q64.9219,687.1563 64.7188,686.9531 Q64.5156,686.7656 64.4063,686.25 Q64.3594,685.8906 64.1719,685.7031 Q63.8438,685.3281 63.2344,685.1094 Q62.625,684.8906 62,684.8906 Q61.2344,684.8906 60.5938,685.2188 Q59.9688,685.5469 59.4688,686.2969 Q58.9844,687.0469 58.9844,688.0781 L58.9844,689.1719 Q58.9844,690.4063 59.875,691.2344 Q60.7656,692.0469 62.3594,692.0469 Q63.2969,692.0469 63.9531,691.7969 Q64.3438,691.6406 64.7656,691.2031 Q65.0313,690.9375 65.1719,690.8594 Q65.3281,690.7813 65.5313,690.7813 Q65.8594,690.7813 66.1094,691.0469 Q66.375,691.2969 66.375,691.6406 Q66.375,691.9844 66.0313,692.3906 Q65.5313,692.9688 64.7344,693.2969 Q63.6563,693.75 62.3594,693.75 Q60.8438,693.75 59.6406,693.125 Q58.6563,692.625 57.9688,691.5625 Q57.2813,690.4844 57.2813,689.2031 L57.2813,688.0469 Q57.2813,686.7188 57.8906,685.5781 Q58.5156,684.4219 59.6094,683.8125 Q60.7031,683.1875 61.9375,683.1875 Q62.6719,683.1875 63.3125,683.3594 Q63.9688,683.5156 64.5156,683.875 Z " fill="#000000"/><text fill="#000000" font-family="sans-serif" font-size="14" lengthAdjust="spacing" textLength="112" x="82.25" y="693.7285">BoundedIntDialog</text><line style="stroke:#181818;stroke-width:0.5;" x1="8" x2="236" y1="704" y2="704"/><rect fill="none" height="6" style="stroke:#C82930;stroke-width:1.0;" width="6" x="15" y="715.3047"/><text fill="#000000" font-family="sans-serif" font-size="14" lengthAdjust="spacing" textLength="141" x="27" y="722.5332">ClosedInterval LIMITS;</text><line style="stroke:#181818;stroke-width:0.5;" x1="8" x2="236" y1="729.6094" y2="729.6094"/><text fill="#000000" font-family="sans-serif" font-size="14" lengthAdjust="spacing" textLength="218" x="13" y="748.1426">public BoundedIntDialog(min, max)</text><text fill="#000000" font-family="sans-serif" font-size="14" lengthAdjust="spacing" textLength="197" x="13" y="765.752">public int read(String message)</text></g><!--MD5=[2cb47ba637a0d19583e6199456f6ad0b]
class Player--><g id="elem_Player"><rect codeLine="35" fill="#F1F1F1" height="153.6563" id="Player" rx="2.5" ry="2.5" style="stroke:#181818;stroke-width:0.5;" width="266" x="448" y="488"/><ellipse cx="556.75" cy="504" fill="#A9DCDF" rx="11" ry="11" style="stroke:#181818;stroke-width:1.0;"/><path d="M558.9375,505.7656 L554.7969,505.7656 L554.375,506.7969 L554.7969,506.7969 Q555.4063,506.7969 555.6719,507.0313 Q555.9375,507.2656 555.9375,507.6563 Q555.9375,508.0313 555.6719,508.2656 Q555.4063,508.5 554.7969,508.5 L552.5,508.5 Q551.8906,508.5 551.6406,508.2656 Q551.375,508.0313 551.375,507.6406 Q551.375,507.2656 551.6563,507.0313 Q551.9219,506.7813 552.5469,506.7969 L555.2188,500.1406 L554.1094,500.1406 Q553.5,500.1406 553.2344,499.9063 Q552.9688,499.6719 552.9688,499.2813 Q552.9688,498.9063 553.2344,498.6719 Q553.5,498.4375 554.1094,498.4375 L557.7813,498.4375 L561.1719,506.7969 Q561.7656,506.7969 561.9531,506.9375 Q562.3438,507.2031 562.3438,507.6563 Q562.3438,508.0313 562.0781,508.2656 Q561.8281,508.5 561.2188,508.5 L558.9219,508.5 Q558.3125,508.5 558.0469,508.2656 Q557.7813,508.0313 557.7813,507.6406 Q557.7813,507.2656 558.0469,507.0313 Q558.3125,506.7969 558.9219,506.7969 L559.3438,506.7969 L558.9375,505.7656 Z M558.2188,504.0625 L556.8594,500.6875 L555.4844,504.0625 L558.2188,504.0625 Z " fill="#000000"/><text fill="#000000" font-family="sans-serif" font-size="14" font-style="italic" lengthAdjust="spacing" textLength="40" x="577.25" y="509.7285">Player</text><line style="stroke:#181818;stroke-width:0.5;" x1="449" x2="713" y1="520" y2="520"/><line style="stroke:#181818;stroke-width:0.5;" x1="449" x2="713" y1="528" y2="528"/><text fill="#000000" font-family="sans-serif" font-size="14" lengthAdjust="spacing" textLength="126" x="468" y="546.5332">Player(color, board)</text><text fill="#000000" font-family="sans-serif" font-size="14" lengthAdjust="spacing" textLength="109" x="468" y="564.1426">void dropToken()</text><polygon fill="#4177AF" points="459,573.5234,455,579.5234,463,579.5234" style="stroke:#1963A0;stroke-width:1.0;"/><text fill="#000000" font-family="sans-serif" font-size="14" lengthAdjust="spacing" textLength="109" x="468" y="581.752">void writePlayer()</text><polygon fill="#4177AF" points="459,591.1328,455,597.1328,463,597.1328" style="stroke:#1963A0;stroke-width:1.0;"/><text fill="#000000" font-family="sans-serif" font-size="14" lengthAdjust="spacing" textLength="156" x="468" y="599.3613">abstract int getColumn();</text><text fill="#000000" font-family="sans-serif" font-size="14" lengthAdjust="spacing" textLength="240" x="468" y="616.9707">public boolean isComplete(int column)</text><text fill="#000000" font-family="sans-serif" font-size="14" lengthAdjust="spacing" textLength="143" x="468" y="634.5801">public Color getColor()</text></g><!--MD5=[d159557bab43e1f13b9627fe22d6ac69]
class UserPlayer--><g id="elem_UserPlayer"><rect codeLine="44" fill="#F1F1F1" height="83.2188" id="UserPlayer" rx="2.5" ry="2.5" style="stroke:#181818;stroke-width:0.5;" width="181" x="172.5" y="961.5"/><ellipse cx="224.25" cy="977.5" fill="#ADD1B2" rx="11" ry="11" style="stroke:#181818;stroke-width:1.0;"/><path d="M227.0156,973.375 Q227.1719,973.1563 227.3594,973.0469 Q227.5469,972.9375 227.7656,972.9375 Q228.1406,972.9375 228.375,973.2031 Q228.6094,973.4531 228.6094,974.0625 L228.6094,975.5156 Q228.6094,976.125 228.375,976.3906 Q228.1406,976.6563 227.7656,976.6563 Q227.4219,976.6563 227.2188,976.4531 Q227.0156,976.2656 226.9063,975.75 Q226.8594,975.3906 226.6719,975.2031 Q226.3438,974.8281 225.7344,974.6094 Q225.125,974.3906 224.5,974.3906 Q223.7344,974.3906 223.0938,974.7188 Q222.4688,975.0469 221.9688,975.7969 Q221.4844,976.5469 221.4844,977.5781 L221.4844,978.6719 Q221.4844,979.9063 222.375,980.7344 Q223.2656,981.5469 224.8594,981.5469 Q225.7969,981.5469 226.4531,981.2969 Q226.8438,981.1406 227.2656,980.7031 Q227.5313,980.4375 227.6719,980.3594 Q227.8281,980.2813 228.0313,980.2813 Q228.3594,980.2813 228.6094,980.5469 Q228.875,980.7969 228.875,981.1406 Q228.875,981.4844 228.5313,981.8906 Q228.0313,982.4688 227.2344,982.7969 Q226.1563,983.25 224.8594,983.25 Q223.3438,983.25 222.1406,982.625 Q221.1563,982.125 220.4688,981.0625 Q219.7813,979.9844 219.7813,978.7031 L219.7813,977.5469 Q219.7813,976.2188 220.3906,975.0781 Q221.0156,973.9219 222.1094,973.3125 Q223.2031,972.6875 224.4375,972.6875 Q225.1719,972.6875 225.8125,972.8594 Q226.4688,973.0156 227.0156,973.375 Z " fill="#000000"/><text fill="#000000" font-family="sans-serif" font-size="14" lengthAdjust="spacing" textLength="69" x="244.75" y="983.2285">UserPlayer</text><line style="stroke:#181818;stroke-width:0.5;" x1="173.5" x2="352.5" y1="993.5" y2="993.5"/><line style="stroke:#181818;stroke-width:0.5;" x1="173.5" x2="352.5" y1="1001.5" y2="1001.5"/><text fill="#000000" font-family="sans-serif" font-size="14" lengthAdjust="spacing" textLength="155" x="192.5" y="1020.0332">UserPlayer(color, board)</text><polygon fill="#4177AF" points="183.5,1029.4141,179.5,1035.4141,187.5,1035.4141" style="stroke:#1963A0;stroke-width:1.0;"/><text fill="#000000" font-family="sans-serif" font-size="14" lengthAdjust="spacing" textLength="97" x="192.5" y="1037.6426">int getColumn()</text></g><!--MD5=[a5da982588f8b35f293d2aa585a3c89c]
class MachinePlayer--><g id="elem_MachinePlayer"><rect codeLine="49" fill="#F1F1F1" height="118.4375" id="MachinePlayer" rx="2.5" ry="2.5" style="stroke:#181818;stroke-width:0.5;" width="205" x="388.5" y="944"/><ellipse cx="439.75" cy="960" fill="#A9DCDF" rx="11" ry="11" style="stroke:#181818;stroke-width:1.0;"/><path d="M441.9375,961.7656 L437.7969,961.7656 L437.375,962.7969 L437.7969,962.7969 Q438.4063,962.7969 438.6719,963.0313 Q438.9375,963.2656 438.9375,963.6563 Q438.9375,964.0313 438.6719,964.2656 Q438.4063,964.5 437.7969,964.5 L435.5,964.5 Q434.8906,964.5 434.6406,964.2656 Q434.375,964.0313 434.375,963.6406 Q434.375,963.2656 434.6563,963.0313 Q434.9219,962.7813 435.5469,962.7969 L438.2188,956.1406 L437.1094,956.1406 Q436.5,956.1406 436.2344,955.9063 Q435.9688,955.6719 435.9688,955.2813 Q435.9688,954.9063 436.2344,954.6719 Q436.5,954.4375 437.1094,954.4375 L440.7813,954.4375 L444.1719,962.7969 Q444.7656,962.7969 444.9531,962.9375 Q445.3438,963.2031 445.3438,963.6563 Q445.3438,964.0313 445.0781,964.2656 Q444.8281,964.5 444.2188,964.5 L441.9219,964.5 Q441.3125,964.5 441.0469,964.2656 Q440.7813,964.0313 440.7813,963.6406 Q440.7813,963.2656 441.0469,963.0313 Q441.3125,962.7969 441.9219,962.7969 L442.3438,962.7969 L441.9375,961.7656 Z M441.2188,960.0625 L439.8594,956.6875 L438.4844,960.0625 L441.2188,960.0625 Z " fill="#000000"/><text fill="#000000" font-family="sans-serif" font-size="14" font-style="italic" lengthAdjust="spacing" textLength="94" x="460.25" y="965.7285">MachinePlayer</text><line style="stroke:#181818;stroke-width:0.5;" x1="389.5" x2="592.5" y1="976" y2="976"/><line style="stroke:#181818;stroke-width:0.5;" x1="389.5" x2="592.5" y1="984" y2="984"/><text fill="#000000" font-family="sans-serif" font-size="14" lengthAdjust="spacing" textLength="179" x="408.5" y="1002.5332">MachinePlayer(color, board)</text><polygon fill="#4177AF" points="399.5,1011.9141,395.5,1017.9141,403.5,1017.9141" style="stroke:#1963A0;stroke-width:1.0;"/><text fill="#000000" font-family="sans-serif" font-size="14" lengthAdjust="spacing" textLength="97" x="408.5" y="1020.1426">int getColumn()</text><polygon fill="#4177AF" points="399.5,1029.5234,395.5,1035.5234,403.5,1035.5234" style="stroke:#1963A0;stroke-width:1.0;"/><text fill="#000000" font-family="sans-serif" font-size="14" lengthAdjust="spacing" textLength="160" x="408.5" y="1037.752">abstract int _getColumn()</text><polygon fill="#4177AF" points="399.5,1047.1328,395.5,1053.1328,403.5,1053.1328" style="stroke:#1963A0;stroke-width:1.0;"/><text fill="#000000" font-family="sans-serif" font-size="14" lengthAdjust="spacing" textLength="162" x="408.5" y="1055.3613">void writeColumn(column)</text></g><!--MD5=[bed9476c332430e0fd8ad70c4aac2ffe]
class RandomMachinePlayer--><g id="elem_RandomMachinePlayer"><rect codeLine="56" fill="#F1F1F1" height="100.8281" id="RandomMachinePlayer" rx="2.5" ry="2.5" style="stroke:#181818;stroke-width:0.5;" width="258" x="189" y="1333.5"/><ellipse cx="240.75" cy="1349.5" fill="#ADD1B2" rx="11" ry="11" style="stroke:#181818;stroke-width:1.0;"/><path d="M243.5156,1345.375 Q243.6719,1345.1563 243.8594,1345.0469 Q244.0469,1344.9375 244.2656,1344.9375 Q244.6406,1344.9375 244.875,1345.2031 Q245.1094,1345.4531 245.1094,1346.0625 L245.1094,1347.5156 Q245.1094,1348.125 244.875,1348.3906 Q244.6406,1348.6563 244.2656,1348.6563 Q243.9219,1348.6563 243.7188,1348.4531 Q243.5156,1348.2656 243.4063,1347.75 Q243.3594,1347.3906 243.1719,1347.2031 Q242.8438,1346.8281 242.2344,1346.6094 Q241.625,1346.3906 241,1346.3906 Q240.2344,1346.3906 239.5938,1346.7188 Q238.9688,1347.0469 238.4688,1347.7969 Q237.9844,1348.5469 237.9844,1349.5781 L237.9844,1350.6719 Q237.9844,1351.9063 238.875,1352.7344 Q239.7656,1353.5469 241.3594,1353.5469 Q242.2969,1353.5469 242.9531,1353.2969 Q243.3438,1353.1406 243.7656,1352.7031 Q244.0313,1352.4375 244.1719,1352.3594 Q244.3281,1352.2813 244.5313,1352.2813 Q244.8594,1352.2813 245.1094,1352.5469 Q245.375,1352.7969 245.375,1353.1406 Q245.375,1353.4844 245.0313,1353.8906 Q244.5313,1354.4688 243.7344,1354.7969 Q242.6563,1355.25 241.3594,1355.25 Q239.8438,1355.25 238.6406,1354.625 Q237.6563,1354.125 236.9688,1353.0625 Q236.2813,1351.9844 236.2813,1350.7031 L236.2813,1349.5469 Q236.2813,1348.2188 236.8906,1347.0781 Q237.5156,1345.9219 238.6094,1345.3125 Q239.7031,1344.6875 240.9375,1344.6875 Q241.6719,1344.6875 242.3125,1344.8594 Q242.9688,1345.0156 243.5156,1345.375 Z " fill="#000000"/><text fill="#000000" font-family="sans-serif" font-size="14" lengthAdjust="spacing" textLength="146" x="261.25" y="1355.2285">RandomMachinePlayer</text><line style="stroke:#181818;stroke-width:0.5;" x1="190" x2="446" y1="1365.5" y2="1365.5"/><line style="stroke:#181818;stroke-width:0.5;" x1="190" x2="446" y1="1373.5" y2="1373.5"/><text fill="#000000" font-family="sans-serif" font-size="14" lengthAdjust="spacing" textLength="232" x="209" y="1392.0332">RandomMachinePlayer(color, board)</text><polygon fill="#4177AF" points="200,1401.4141,196,1407.4141,204,1407.4141" style="stroke:#1963A0;stroke-width:1.0;"/><text fill="#000000" font-family="sans-serif" font-size="14" lengthAdjust="spacing" textLength="105" x="209" y="1409.6426">int _getColumn()</text><polygon fill="#4177AF" points="200,1419.0234,196,1425.0234,204,1425.0234" style="stroke:#1963A0;stroke-width:1.0;"/><text fill="#000000" font-family="sans-serif" font-size="14" lengthAdjust="spacing" textLength="150" x="209" y="1427.252">int getRandomColumn()</text></g><!--MD5=[356a1bacc64209cf6ed12d50b7e79952]
class TrickyRandomMachinePlayer--><g id="elem_TrickyRandomMachinePlayer"><rect codeLine="62" fill="#F1F1F1" height="100.8281" id="TrickyRandomMachinePlayer" rx="2.5" ry="2.5" style="stroke:#181818;stroke-width:0.5;" width="296" x="172" y="1679.5"/><ellipse cx="223.75" cy="1695.5" fill="#ADD1B2" rx="11" ry="11" style="stroke:#181818;stroke-width:1.0;"/><path d="M226.5156,1691.375 Q226.6719,1691.1563 226.8594,1691.0469 Q227.0469,1690.9375 227.2656,1690.9375 Q227.6406,1690.9375 227.875,1691.2031 Q228.1094,1691.4531 228.1094,1692.0625 L228.1094,1693.5156 Q228.1094,1694.125 227.875,1694.3906 Q227.6406,1694.6563 227.2656,1694.6563 Q226.9219,1694.6563 226.7188,1694.4531 Q226.5156,1694.2656 226.4063,1693.75 Q226.3594,1693.3906 226.1719,1693.2031 Q225.8438,1692.8281 225.2344,1692.6094 Q224.625,1692.3906 224,1692.3906 Q223.2344,1692.3906 222.5938,1692.7188 Q221.9688,1693.0469 221.4688,1693.7969 Q220.9844,1694.5469 220.9844,1695.5781 L220.9844,1696.6719 Q220.9844,1697.9063 221.875,1698.7344 Q222.7656,1699.5469 224.3594,1699.5469 Q225.2969,1699.5469 225.9531,1699.2969 Q226.3438,1699.1406 226.7656,1698.7031 Q227.0313,1698.4375 227.1719,1698.3594 Q227.3281,1698.2813 227.5313,1698.2813 Q227.8594,1698.2813 228.1094,1698.5469 Q228.375,1698.7969 228.375,1699.1406 Q228.375,1699.4844 228.0313,1699.8906 Q227.5313,1700.4688 226.7344,1700.7969 Q225.6563,1701.25 224.3594,1701.25 Q222.8438,1701.25 221.6406,1700.625 Q220.6563,1700.125 219.9688,1699.0625 Q219.2813,1697.9844 219.2813,1696.7031 L219.2813,1695.5469 Q219.2813,1694.2188 219.8906,1693.0781 Q220.5156,1691.9219 221.6094,1691.3125 Q222.7031,1690.6875 223.9375,1690.6875 Q224.6719,1690.6875 225.3125,1690.8594 Q225.9688,1691.0156 226.5156,1691.375 Z " fill="#000000"/><text fill="#000000" font-family="sans-serif" font-size="14" lengthAdjust="spacing" textLength="184" x="244.25" y="1701.2285">TrickyRandomMachinePlayer</text><line style="stroke:#181818;stroke-width:0.5;" x1="173" x2="467" y1="1711.5" y2="1711.5"/><line style="stroke:#181818;stroke-width:0.5;" x1="173" x2="467" y1="1719.5" y2="1719.5"/><text fill="#000000" font-family="sans-serif" font-size="14" lengthAdjust="spacing" textLength="270" x="192" y="1738.0332">TrickyRandomMachinePlayer(color, board)</text><polygon fill="#4177AF" points="183,1747.4141,179,1753.4141,187,1753.4141" style="stroke:#1963A0;stroke-width:1.0;"/><text fill="#000000" font-family="sans-serif" font-size="14" lengthAdjust="spacing" textLength="133" x="192" y="1755.6426">int calculateColumn()</text><rect fill="#F24D5C" height="6" style="stroke:#C82930;stroke-width:1.0;" width="6" x="180" y="1766.0234"/><text fill="#000000" font-family="sans-serif" font-size="14" lengthAdjust="spacing" textLength="220" x="192" y="1773.252">void moveRandomTopFrom(origin)</text></g><!--MD5=[9563755d011c5cec7ec66dc53565a59e]
class Board--><g id="elem_Board"><rect codeLine="68" fill="#F1F1F1" height="400.1875" id="Board" rx="2.5" ry="2.5" style="stroke:#181818;stroke-width:0.5;" width="267" x="737.5" y="803"/><ellipse cx="847.75" cy="819" fill="#ADD1B2" rx="11" ry="11" style="stroke:#181818;stroke-width:1.0;"/><path d="M850.5156,814.875 Q850.6719,814.6563 850.8594,814.5469 Q851.0469,814.4375 851.2656,814.4375 Q851.6406,814.4375 851.875,814.7031 Q852.1094,814.9531 852.1094,815.5625 L852.1094,817.0156 Q852.1094,817.625 851.875,817.8906 Q851.6406,818.1563 851.2656,818.1563 Q850.9219,818.1563 850.7188,817.9531 Q850.5156,817.7656 850.4063,817.25 Q850.3594,816.8906 850.1719,816.7031 Q849.8438,816.3281 849.2344,816.1094 Q848.625,815.8906 848,815.8906 Q847.2344,815.8906 846.5938,816.2188 Q845.9688,816.5469 845.4688,817.2969 Q844.9844,818.0469 844.9844,819.0781 L844.9844,820.1719 Q844.9844,821.4063 845.875,822.2344 Q846.7656,823.0469 848.3594,823.0469 Q849.2969,823.0469 849.9531,822.7969 Q850.3438,822.6406 850.7656,822.2031 Q851.0313,821.9375 851.1719,821.8594 Q851.3281,821.7813 851.5313,821.7813 Q851.8594,821.7813 852.1094,822.0469 Q852.375,822.2969 852.375,822.6406 Q852.375,822.9844 852.0313,823.3906 Q851.5313,823.9688 850.7344,824.2969 Q849.6563,824.75 848.3594,824.75 Q846.8438,824.75 845.6406,824.125 Q844.6563,823.625 843.9688,822.5625 Q843.2813,821.4844 843.2813,820.2031 L843.2813,819.0469 Q843.2813,817.7188 843.8906,816.5781 Q844.5156,815.4219 845.6094,814.8125 Q846.7031,814.1875 847.9375,814.1875 Q848.6719,814.1875 849.3125,814.3594 Q849.9688,814.5156 850.5156,814.875 Z " fill="#000000"/><text fill="#000000" font-family="sans-serif" font-size="14" lengthAdjust="spacing" textLength="38" x="868.25" y="824.7285">Board</text><line style="stroke:#181818;stroke-width:0.5;" x1="738.5" x2="1003.5" y1="835" y2="835"/><rect fill="none" height="6" style="stroke:#C82930;stroke-width:1.0;" width="6" x="745.5" y="846.3047"/><text fill="#000000" font-family="sans-serif" font-size="14" lengthAdjust="spacing" textLength="131" x="757.5" y="853.5332">Coordinate lastDrop;</text><line style="stroke:#181818;stroke-width:0.5;" x1="738.5" x2="1003.5" y1="860.6094" y2="860.6094"/><text fill="#000000" font-family="sans-serif" font-size="14" lengthAdjust="spacing" textLength="48" x="757.5" y="879.1426">Board()</text><text fill="#000000" font-family="sans-serif" font-size="14" lengthAdjust="spacing" textLength="72" x="757.5" y="896.752">void reset()</text><rect fill="#F24D5C" height="6" style="stroke:#C82930;stroke-width:1.0;" width="6" x="745.5" y="907.1328"/><text fill="#000000" font-family="sans-serif" font-size="14" lengthAdjust="spacing" textLength="199" x="757.5" y="914.3613">void setColor(coordinate, color)</text><text fill="#000000" font-family="sans-serif" font-size="14" lengthAdjust="spacing" textLength="193" x="757.5" y="931.9707">void dropToken(column, color)</text><text fill="#000000" font-family="sans-serif" font-size="14" lengthAdjust="spacing" textLength="180" x="757.5" y="949.5801">boolean isComplete(column)</text><text fill="#000000" font-family="sans-serif" font-size="14" lengthAdjust="spacing" textLength="135" x="757.5" y="967.1895">boolean isComplete()</text><text fill="#000000" font-family="sans-serif" font-size="14" lengthAdjust="spacing" textLength="80" x="757.5" y="984.7988">void writeln()</text><rect fill="#F24D5C" height="6" style="stroke:#C82930;stroke-width:1.0;" width="6" x="745.5" y="995.1797"/><text fill="#000000" font-family="sans-serif" font-size="14" lengthAdjust="spacing" textLength="131" x="757.5" y="1002.4082">void writeHorizontal()</text><text fill="#000000" font-family="sans-serif" font-size="14" lengthAdjust="spacing" textLength="120" x="757.5" y="1020.0176">boolean isWinner()</text><rect fill="#F24D5C" height="6" style="stroke:#C82930;stroke-width:1.0;" width="6" x="745.5" y="1030.3984"/><text fill="#000000" font-family="sans-serif" font-size="14" lengthAdjust="spacing" textLength="194" x="757.5" y="1037.627">boolean isWinner(coordinates)</text><text fill="#000000" font-family="sans-serif" font-size="14" lengthAdjust="spacing" textLength="109" x="757.5" y="1055.2363">void writeResult()</text><rect fill="#F24D5C" height="6" style="stroke:#C82930;stroke-width:1.0;" width="6" x="745.5" y="1065.6172"/><text fill="#000000" font-family="sans-serif" font-size="14" lengthAdjust="spacing" textLength="241" x="757.5" y="1072.8457">boolean isOccupied(coordinate, color)</text><rect fill="#F24D5C" height="6" style="stroke:#C82930;stroke-width:1.0;" width="6" x="745.5" y="1083.2266"/><text fill="#000000" font-family="sans-serif" font-size="14" lengthAdjust="spacing" textLength="181" x="757.5" y="1090.4551">boolean isEmpty(coordinate)</text><rect fill="#F24D5C" height="6" style="stroke:#C82930;stroke-width:1.0;" width="6" x="745.5" y="1100.8359"/><text fill="#000000" font-family="sans-serif" font-size="14" lengthAdjust="spacing" textLength="169" x="757.5" y="1108.0645">Color getColor(coordinate)</text><text fill="#000000" font-family="sans-serif" font-size="14" lengthAdjust="spacing" textLength="184" x="757.5" y="1125.6738">boolean isTop(column, color)</text><rect fill="#F24D5C" height="6" style="stroke:#C82930;stroke-width:1.0;" width="6" x="745.5" y="1136.0547"/><text fill="#000000" font-family="sans-serif" font-size="14" lengthAdjust="spacing" textLength="174" x="757.5" y="1143.2832">Coordinate getTop(column)</text><rect fill="#F24D5C" height="6" style="stroke:#C82930;stroke-width:1.0;" width="6" x="745.5" y="1153.6641"/><text fill="#000000" font-family="sans-serif" font-size="14" lengthAdjust="spacing" textLength="159" x="757.5" y="1160.8926">boolean isEmpty(column)</text><text fill="#000000" font-family="sans-serif" font-size="14" lengthAdjust="spacing" textLength="157" x="757.5" y="1178.502">void removeTop(column)</text><text fill="#000000" font-family="sans-serif" font-size="14" lengthAdjust="spacing" textLength="114" x="757.5" y="1196.1113">boolean isEmpty()</text></g><!--MD5=[a6f9e01189e6a3f03ead5432217271d3]
class LinePositioner--><g id="elem_LinePositioner"><rect codeLine="91" fill="#F1F1F1" height="206.4844" id="LinePositioner" rx="2.5" ry="2.5" style="stroke:#181818;stroke-width:0.5;" width="363" x="995.5" y="1281"/><ellipse cx="1127.75" cy="1297" fill="#ADD1B2" rx="11" ry="11" style="stroke:#181818;stroke-width:1.0;"/><path d="M1130.5156,1292.875 Q1130.6719,1292.6563 1130.8594,1292.5469 Q1131.0469,1292.4375 1131.2656,1292.4375 Q1131.6406,1292.4375 1131.875,1292.7031 Q1132.1094,1292.9531 1132.1094,1293.5625 L1132.1094,1295.0156 Q1132.1094,1295.625 1131.875,1295.8906 Q1131.6406,1296.1563 1131.2656,1296.1563 Q1130.9219,1296.1563 1130.7188,1295.9531 Q1130.5156,1295.7656 1130.4063,1295.25 Q1130.3594,1294.8906 1130.1719,1294.7031 Q1129.8438,1294.3281 1129.2344,1294.1094 Q1128.625,1293.8906 1128,1293.8906 Q1127.2344,1293.8906 1126.5938,1294.2188 Q1125.9688,1294.5469 1125.4688,1295.2969 Q1124.9844,1296.0469 1124.9844,1297.0781 L1124.9844,1298.1719 Q1124.9844,1299.4063 1125.875,1300.2344 Q1126.7656,1301.0469 1128.3594,1301.0469 Q1129.2969,1301.0469 1129.9531,1300.7969 Q1130.3438,1300.6406 1130.7656,1300.2031 Q1131.0313,1299.9375 1131.1719,1299.8594 Q1131.3281,1299.7813 1131.5313,1299.7813 Q1131.8594,1299.7813 1132.1094,1300.0469 Q1132.375,1300.2969 1132.375,1300.6406 Q1132.375,1300.9844 1132.0313,1301.3906 Q1131.5313,1301.9688 1130.7344,1302.2969 Q1129.6563,1302.75 1128.3594,1302.75 Q1126.8438,1302.75 1125.6406,1302.125 Q1124.6563,1301.625 1123.9688,1300.5625 Q1123.2813,1299.4844 1123.2813,1298.2031 L1123.2813,1297.0469 Q1123.2813,1295.7188 1123.8906,1294.5781 Q1124.5156,1293.4219 1125.6094,1292.8125 Q1126.7031,1292.1875 1127.9375,1292.1875 Q1128.6719,1292.1875 1129.3125,1292.3594 Q1129.9688,1292.5156 1130.5156,1292.875 Z " fill="#000000"/><text fill="#000000" font-family="sans-serif" font-size="14" lengthAdjust="spacing" textLength="90" x="1148.25" y="1302.7285">LinePositioner</text><line style="stroke:#181818;stroke-width:0.5;" x1="996.5" x2="1357.5" y1="1313" y2="1313"/><text fill="#000000" font-family="sans-serif" font-size="14" lengthAdjust="spacing" text-decoration="underline" textLength="102" x="1015.5" y="1331.5332">int LENGTH = 4;</text><rect fill="none" height="6" style="stroke:#C82930;stroke-width:1.0;" width="6" x="1003.5" y="1341.9141"/><text fill="#000000" font-family="sans-serif" font-size="14" lengthAdjust="spacing" text-decoration="underline" textLength="286" x="1015.5" y="1349.1426">final int MAX_DISPLACEMENT = LENGTH - 1;</text><rect fill="none" height="6" style="stroke:#C82930;stroke-width:1.0;" width="6" x="1003.5" y="1359.5234"/><text fill="#000000" font-family="sans-serif" font-size="14" lengthAdjust="spacing" textLength="113" x="1015.5" y="1366.752">int displacements;</text><line style="stroke:#181818;stroke-width:0.5;" x1="996.5" x2="1357.5" y1="1373.8281" y2="1373.8281"/><text fill="#000000" font-family="sans-serif" font-size="14" lengthAdjust="spacing" textLength="135" x="1015.5" y="1392.3613">LinePositioner(origin)</text><text fill="#000000" font-family="sans-serif" font-size="14" lengthAdjust="spacing" textLength="165" x="1015.5" y="1409.9707">boolean hasNextPosition()</text><text fill="#000000" font-family="sans-serif" font-size="14" lengthAdjust="spacing" textLength="198" x="1015.5" y="1427.5801">List&lt;Coordinate&gt; nextPosition()</text><rect fill="#F24D5C" height="6" style="stroke:#C82930;stroke-width:1.0;" width="6" x="1003.5" y="1437.9609"/><text fill="#000000" font-family="sans-serif" font-size="14" lengthAdjust="spacing" textLength="219" x="1015.5" y="1445.1895">List&lt;Coordinate&gt; getCoordinates()</text><rect fill="#F24D5C" height="6" style="stroke:#C82930;stroke-width:1.0;" width="6" x="1003.5" y="1455.5703"/><text fill="#000000" font-family="sans-serif" font-size="14" lengthAdjust="spacing" textLength="275" x="1015.5" y="1462.7988">List&lt;Coordinate&gt; getDirectionCoordinates()</text><rect fill="#F24D5C" height="6" style="stroke:#C82930;stroke-width:1.0;" width="6" x="1003.5" y="1473.1797"/><text fill="#000000" font-family="sans-serif" font-size="14" lengthAdjust="spacing" textLength="337" x="1015.5" y="1480.4082">List&lt;Coordinate&gt; getShiftedCoordinates(coordinates)</text></g><!--MD5=[18eee71c88ab61f27581b8cbdd3ef5ee]
class Color--><g id="elem_Color"><rect codeLine="103" fill="#F1F1F1" height="206.4844" id="Color" rx="2.5" ry="2.5" style="stroke:#181818;stroke-width:0.5;" width="336" x="482" y="1281"/><ellipse cx="628.75" cy="1297" fill="#EB937F" rx="11" ry="11" style="stroke:#181818;stroke-width:1.0;"/><path d="M627.6094,1297.7969 L627.6094,1300.2969 L631.9375,1300.2969 L631.9375,1299.375 Q631.9375,1298.7656 632.1719,1298.5 Q632.4219,1298.2344 632.7969,1298.2344 Q633.1719,1298.2344 633.4063,1298.5 Q633.6406,1298.7656 633.6406,1299.375 L633.6406,1302 L625.6406,1302 Q625.0156,1302 624.75,1301.7656 Q624.5,1301.5313 624.5,1301.1406 Q624.5,1300.7656 624.7656,1300.5313 Q625.0313,1300.2969 625.6406,1300.2969 L625.9063,1300.2969 L625.9063,1293.6406 L625.6406,1293.6406 Q625.0156,1293.6406 624.75,1293.4063 Q624.5,1293.1719 624.5,1292.7813 Q624.5,1292.4063 624.75,1292.1719 Q625.0156,1291.9375 625.6406,1291.9375 L633.2656,1291.9375 L633.2656,1294.5313 Q633.2656,1295.1406 633.0313,1295.4063 Q632.8125,1295.6563 632.4219,1295.6563 Q632.0469,1295.6563 631.8125,1295.4063 Q631.5781,1295.1406 631.5781,1294.5313 L631.5781,1293.6406 L627.6094,1293.6406 L627.6094,1296.0938 L629.0938,1296.0938 Q629.0938,1295.4375 629.2188,1295.25 Q629.4844,1294.8438 629.9531,1294.8438 Q630.3281,1294.8438 630.5625,1295.1094 Q630.7969,1295.3594 630.7969,1295.9688 L630.7969,1297.9375 Q630.7969,1298.4844 630.6719,1298.6719 Q630.4063,1299.0625 629.9531,1299.0625 Q629.4844,1299.0625 629.2188,1298.6563 Q629.0938,1298.4688 629.0938,1297.7969 L627.6094,1297.7969 Z " fill="#000000"/><text fill="#000000" font-family="sans-serif" font-size="14" lengthAdjust="spacing" textLength="34" x="649.25" y="1302.7285">Color</text><line style="stroke:#181818;stroke-width:0.5;" x1="483" x2="817" y1="1313" y2="1313"/><text fill="#000000" font-family="sans-serif" font-size="14" lengthAdjust="spacing" textLength="29" x="502" y="1331.5332">RED</text><text fill="#000000" font-family="sans-serif" font-size="14" lengthAdjust="spacing" textLength="58" x="502" y="1349.1426">YELLOW</text><text fill="#000000" font-family="sans-serif" font-size="14" lengthAdjust="spacing" textLength="34" x="502" y="1366.752">NULL</text><rect fill="none" height="6" style="stroke:#C82930;stroke-width:1.0;" width="6" x="490" y="1377.1328"/><text fill="#000000" font-family="sans-serif" font-size="14" lengthAdjust="spacing" text-decoration="underline" textLength="310" x="502" y="1384.3613">Color[] PLAYERS = {Color.RED, Color.YELLOW};</text><line style="stroke:#181818;stroke-width:0.5;" x1="483" x2="817" y1="1391.4375" y2="1391.4375"/><ellipse cx="493" cy="1405.7422" fill="#84BE84" rx="3" ry="3" style="stroke:#038048;stroke-width:1.0;"/><text fill="#000000" font-family="sans-serif" font-size="14" lengthAdjust="spacing" text-decoration="underline" textLength="111" x="502" y="1409.9707">Color get(ordinal)</text><ellipse cx="493" cy="1423.3516" fill="#84BE84" rx="3" ry="3" style="stroke:#038048;stroke-width:1.0;"/><text fill="#000000" font-family="sans-serif" font-size="14" lengthAdjust="spacing" textLength="98" x="502" y="1427.5801">boolean isNull()</text><ellipse cx="493" cy="1440.9609" fill="#84BE84" rx="3" ry="3" style="stroke:#038048;stroke-width:1.0;"/><text fill="#000000" font-family="sans-serif" font-size="14" lengthAdjust="spacing" textLength="125" x="502" y="1445.1895">Color getOpposite()</text><ellipse cx="493" cy="1458.5703" fill="#84BE84" rx="3" ry="3" style="stroke:#038048;stroke-width:1.0;"/><text fill="#000000" font-family="sans-serif" font-size="14" lengthAdjust="spacing" textLength="96" x="502" y="1462.7988">char getCode()</text><ellipse cx="493" cy="1476.1797" fill="#84BE84" rx="3" ry="3" style="stroke:#038048;stroke-width:1.0;"/><text fill="#000000" font-family="sans-serif" font-size="14" lengthAdjust="spacing" textLength="100" x="502" y="1480.4082">String toString()</text></g><!--MD5=[02f7077ed79257124e28b791f351f1d7]
class Direction--><g id="elem_Direction"><rect codeLine="115" fill="#F1F1F1" height="329.75" id="Direction" rx="2.5" ry="2.5" style="stroke:#181818;stroke-width:0.5;" width="203" x="924.5" y="1565"/><ellipse cx="993.75" cy="1581" fill="#EB937F" rx="11" ry="11" style="stroke:#181818;stroke-width:1.0;"/><path d="M992.6094,1581.7969 L992.6094,1584.2969 L996.9375,1584.2969 L996.9375,1583.375 Q996.9375,1582.7656 997.1719,1582.5 Q997.4219,1582.2344 997.7969,1582.2344 Q998.1719,1582.2344 998.4063,1582.5 Q998.6406,1582.7656 998.6406,1583.375 L998.6406,1586 L990.6406,1586 Q990.0156,1586 989.75,1585.7656 Q989.5,1585.5313 989.5,1585.1406 Q989.5,1584.7656 989.7656,1584.5313 Q990.0313,1584.2969 990.6406,1584.2969 L990.9063,1584.2969 L990.9063,1577.6406 L990.6406,1577.6406 Q990.0156,1577.6406 989.75,1577.4063 Q989.5,1577.1719 989.5,1576.7813 Q989.5,1576.4063 989.75,1576.1719 Q990.0156,1575.9375 990.6406,1575.9375 L998.2656,1575.9375 L998.2656,1578.5313 Q998.2656,1579.1406 998.0313,1579.4063 Q997.8125,1579.6563 997.4219,1579.6563 Q997.0469,1579.6563 996.8125,1579.4063 Q996.5781,1579.1406 996.5781,1578.5313 L996.5781,1577.6406 L992.6094,1577.6406 L992.6094,1580.0938 L994.0938,1580.0938 Q994.0938,1579.4375 994.2188,1579.25 Q994.4844,1578.8438 994.9531,1578.8438 Q995.3281,1578.8438 995.5625,1579.1094 Q995.7969,1579.3594 995.7969,1579.9688 L995.7969,1581.9375 Q995.7969,1582.4844 995.6719,1582.6719 Q995.4063,1583.0625 994.9531,1583.0625 Q994.4844,1583.0625 994.2188,1582.6563 Q994.0938,1582.4688 994.0938,1581.7969 L992.6094,1581.7969 Z " fill="#000000"/><text fill="#000000" font-family="sans-serif" font-size="14" lengthAdjust="spacing" textLength="56" x="1014.25" y="1586.7285">Direction</text><line style="stroke:#181818;stroke-width:0.5;" x1="925.5" x2="1126.5" y1="1597" y2="1597"/><text fill="#000000" font-family="sans-serif" font-size="14" lengthAdjust="spacing" textLength="48" x="944.5" y="1615.5332">NORTH</text><text fill="#000000" font-family="sans-serif" font-size="14" lengthAdjust="spacing" textLength="92" x="944.5" y="1633.1426">NORTH_EAST</text><text fill="#000000" font-family="sans-serif" font-size="14" lengthAdjust="spacing" textLength="36" x="944.5" y="1650.752">EAST</text><text fill="#000000" font-family="sans-serif" font-size="14" lengthAdjust="spacing" textLength="91" x="944.5" y="1668.3613">SOUTH_EAST</text><text fill="#000000" font-family="sans-serif" font-size="14" lengthAdjust="spacing" textLength="47" x="944.5" y="1685.9707">SOUTH</text><text fill="#000000" font-family="sans-serif" font-size="14" lengthAdjust="spacing" textLength="95" x="944.5" y="1703.5801">SOUTH_WEST</text><text fill="#000000" font-family="sans-serif" font-size="14" lengthAdjust="spacing" textLength="40" x="944.5" y="1721.1895">WEST</text><text fill="#000000" font-family="sans-serif" font-size="14" lengthAdjust="spacing" textLength="96" x="944.5" y="1738.7988">NORTH_WEST</text><text fill="#000000" font-family="sans-serif" font-size="14" lengthAdjust="spacing" textLength="34" x="944.5" y="1756.4082">NULL</text><rect fill="none" height="6" style="stroke:#C82930;stroke-width:1.0;" width="6" x="932.5" y="1766.7891"/><text fill="#000000" font-family="sans-serif" font-size="14" lengthAdjust="spacing" textLength="167" x="944.5" y="1774.0176">final ClosedInterval LIMITS</text><line style="stroke:#181818;stroke-width:0.5;" x1="925.5" x2="1126.5" y1="1781.0938" y2="1781.0938"/><rect fill="#F24D5C" height="6" style="stroke:#C82930;stroke-width:1.0;" width="6" x="932.5" y="1792.3984"/><text fill="#000000" font-family="sans-serif" font-size="14" lengthAdjust="spacing" textLength="66" x="944.5" y="1799.627">Direction()</text><rect fill="#F24D5C" height="6" style="stroke:#C82930;stroke-width:1.0;" width="6" x="932.5" y="1810.0078"/><text fill="#000000" font-family="sans-serif" font-size="14" lengthAdjust="spacing" textLength="141" x="944.5" y="1817.2363">Direction(row, column)</text><ellipse cx="935.5" cy="1830.6172" fill="#84BE84" rx="3" ry="3" style="stroke:#038048;stroke-width:1.0;"/><text fill="#000000" font-family="sans-serif" font-size="14" lengthAdjust="spacing" textLength="96" x="944.5" y="1834.8457">Direction next()</text><ellipse cx="935.5" cy="1848.2266" fill="#84BE84" rx="3" ry="3" style="stroke:#038048;stroke-width:1.0;"/><text fill="#000000" font-family="sans-serif" font-size="14" lengthAdjust="spacing" textLength="177" x="944.5" y="1852.4551">Coordinate next(coordinate)</text><ellipse cx="935.5" cy="1865.8359" fill="#84BE84" rx="3" ry="3" style="stroke:#038048;stroke-width:1.0;"/><text fill="#000000" font-family="sans-serif" font-size="14" lengthAdjust="spacing" textLength="147" x="944.5" y="1870.0645">Direction getOpposite()</text><rect fill="#F24D5C" height="6" style="stroke:#C82930;stroke-width:1.0;" width="6" x="932.5" y="1880.4453"/><text fill="#000000" font-family="sans-serif" font-size="14" lengthAdjust="spacing" textLength="98" x="944.5" y="1887.6738">boolean isNull()</text></g><!--MD5=[8c7d7abc12e214c3cc12c9ab70edee11]
class Coordinate--><g id="elem_Coordinate"><rect codeLine="135" fill="#F1F1F1" height="224.0938" id="Coordinate" rx="2.5" ry="2.5" style="stroke:#181818;stroke-width:0.5;" width="208" x="1094" y="1956"/><ellipse cx="1158.75" cy="1972" fill="#ADD1B2" rx="11" ry="11" style="stroke:#181818;stroke-width:1.0;"/><path d="M1161.5156,1967.875 Q1161.6719,1967.6563 1161.8594,1967.5469 Q1162.0469,1967.4375 1162.2656,1967.4375 Q1162.6406,1967.4375 1162.875,1967.7031 Q1163.1094,1967.9531 1163.1094,1968.5625 L1163.1094,1970.0156 Q1163.1094,1970.625 1162.875,1970.8906 Q1162.6406,1971.1563 1162.2656,1971.1563 Q1161.9219,1971.1563 1161.7188,1970.9531 Q1161.5156,1970.7656 1161.4063,1970.25 Q1161.3594,1969.8906 1161.1719,1969.7031 Q1160.8438,1969.3281 1160.2344,1969.1094 Q1159.625,1968.8906 1159,1968.8906 Q1158.2344,1968.8906 1157.5938,1969.2188 Q1156.9688,1969.5469 1156.4688,1970.2969 Q1155.9844,1971.0469 1155.9844,1972.0781 L1155.9844,1973.1719 Q1155.9844,1974.4063 1156.875,1975.2344 Q1157.7656,1976.0469 1159.3594,1976.0469 Q1160.2969,1976.0469 1160.9531,1975.7969 Q1161.3438,1975.6406 1161.7656,1975.2031 Q1162.0313,1974.9375 1162.1719,1974.8594 Q1162.3281,1974.7813 1162.5313,1974.7813 Q1162.8594,1974.7813 1163.1094,1975.0469 Q1163.375,1975.2969 1163.375,1975.6406 Q1163.375,1975.9844 1163.0313,1976.3906 Q1162.5313,1976.9688 1161.7344,1977.2969 Q1160.6563,1977.75 1159.3594,1977.75 Q1157.8438,1977.75 1156.6406,1977.125 Q1155.6563,1976.625 1154.9688,1975.5625 Q1154.2813,1974.4844 1154.2813,1973.2031 L1154.2813,1972.0469 Q1154.2813,1970.7188 1154.8906,1969.5781 Q1155.5156,1968.4219 1156.6094,1967.8125 Q1157.7031,1967.1875 1158.9375,1967.1875 Q1159.6719,1967.1875 1160.3125,1967.3594 Q1160.9688,1967.5156 1161.5156,1967.875 Z " fill="#000000"/><text fill="#000000" font-family="sans-serif" font-size="14" lengthAdjust="spacing" textLength="70" x="1179.25" y="1977.7285">Coordinate</text><line style="stroke:#181818;stroke-width:0.5;" x1="1095" x2="1301" y1="1988" y2="1988"/><rect fill="none" height="6" style="stroke:#C82930;stroke-width:1.0;" width="6" x="1102" y="1999.3047"/><text fill="#000000" font-family="sans-serif" font-size="14" lengthAdjust="spacing" textLength="68" x="1114" y="2006.5332">int column;</text><rect fill="none" height="6" style="stroke:#C82930;stroke-width:1.0;" width="6" x="1102" y="2016.9141"/><text fill="#000000" font-family="sans-serif" font-size="14" lengthAdjust="spacing" textLength="45" x="1114" y="2024.1426">int row;</text><line style="stroke:#181818;stroke-width:0.5;" x1="1095" x2="1301" y1="2031.2188" y2="2031.2188"/><text fill="#000000" font-family="sans-serif" font-size="14" lengthAdjust="spacing" textLength="121" x="1100" y="2049.752">public Coordinate()</text><text fill="#000000" font-family="sans-serif" font-size="14" lengthAdjust="spacing" textLength="196" x="1100" y="2067.3613">public Coordinate(row, column)</text><text fill="#000000" font-family="sans-serif" font-size="14" lengthAdjust="spacing" textLength="155" x="1100" y="2084.9707">public Coordinate copy()</text><text fill="#000000" font-family="sans-serif" font-size="14" lengthAdjust="spacing" textLength="117" x="1100" y="2102.5801">public int getRow()</text><text fill="#000000" font-family="sans-serif" font-size="14" lengthAdjust="spacing" textLength="138" x="1100" y="2120.1895">public int getColumn()</text><text fill="#000000" font-family="sans-serif" font-size="14" lengthAdjust="spacing" textLength="141" x="1100" y="2137.7988">public String toString()</text><text fill="#000000" font-family="sans-serif" font-size="14" lengthAdjust="spacing" textLength="135" x="1100" y="2155.4082">public int hashCode()</text><text fill="#000000" font-family="sans-serif" font-size="14" lengthAdjust="spacing" textLength="167" x="1100" y="2173.0176">public boolean equals(obj)</text></g><!--MD5=[f0e50675208408ddbf1ed7a91f4eb071]
class ClosedInterval--><g id="elem_ClosedInterval"><rect codeLine="148" fill="#F1F1F1" height="118.4375" id="ClosedInterval" rx="2.5" ry="2.5" style="stroke:#181818;stroke-width:0.5;" width="188" x="777" y="2009"/><ellipse cx="821.75" cy="2025" fill="#ADD1B2" rx="11" ry="11" style="stroke:#181818;stroke-width:1.0;"/><path d="M824.5156,2020.875 Q824.6719,2020.6563 824.8594,2020.5469 Q825.0469,2020.4375 825.2656,2020.4375 Q825.6406,2020.4375 825.875,2020.7031 Q826.1094,2020.9531 826.1094,2021.5625 L826.1094,2023.0156 Q826.1094,2023.625 825.875,2023.8906 Q825.6406,2024.1563 825.2656,2024.1563 Q824.9219,2024.1563 824.7188,2023.9531 Q824.5156,2023.7656 824.4063,2023.25 Q824.3594,2022.8906 824.1719,2022.7031 Q823.8438,2022.3281 823.2344,2022.1094 Q822.625,2021.8906 822,2021.8906 Q821.2344,2021.8906 820.5938,2022.2188 Q819.9688,2022.5469 819.4688,2023.2969 Q818.9844,2024.0469 818.9844,2025.0781 L818.9844,2026.1719 Q818.9844,2027.4063 819.875,2028.2344 Q820.7656,2029.0469 822.3594,2029.0469 Q823.2969,2029.0469 823.9531,2028.7969 Q824.3438,2028.6406 824.7656,2028.2031 Q825.0313,2027.9375 825.1719,2027.8594 Q825.3281,2027.7813 825.5313,2027.7813 Q825.8594,2027.7813 826.1094,2028.0469 Q826.375,2028.2969 826.375,2028.6406 Q826.375,2028.9844 826.0313,2029.3906 Q825.5313,2029.9688 824.7344,2030.2969 Q823.6563,2030.75 822.3594,2030.75 Q820.8438,2030.75 819.6406,2030.125 Q818.6563,2029.625 817.9688,2028.5625 Q817.2813,2027.4844 817.2813,2026.2031 L817.2813,2025.0469 Q817.2813,2023.7188 817.8906,2022.5781 Q818.5156,2021.4219 819.6094,2020.8125 Q820.7031,2020.1875 821.9375,2020.1875 Q822.6719,2020.1875 823.3125,2020.3594 Q823.9688,2020.5156 824.5156,2020.875 Z " fill="#000000"/><text fill="#000000" font-family="sans-serif" font-size="14" lengthAdjust="spacing" textLength="90" x="842.25" y="2030.7285">ClosedInterval</text><line style="stroke:#181818;stroke-width:0.5;" x1="778" x2="964" y1="2041" y2="2041"/><rect fill="none" height="6" style="stroke:#C82930;stroke-width:1.0;" width="6" x="785" y="2052.3047"/><text fill="#000000" font-family="sans-serif" font-size="14" lengthAdjust="spacing" textLength="45" x="797" y="2059.5332">int min;</text><rect fill="none" height="6" style="stroke:#C82930;stroke-width:1.0;" width="6" x="785" y="2069.9141"/><text fill="#000000" font-family="sans-serif" font-size="14" lengthAdjust="spacing" textLength="48" x="797" y="2077.1426">int max;</text><line style="stroke:#181818;stroke-width:0.5;" x1="778" x2="964" y1="2084.2188" y2="2084.2188"/><ellipse cx="788" cy="2098.5234" fill="#84BE84" rx="3" ry="3" style="stroke:#038048;stroke-width:1.0;"/><text fill="#000000" font-family="sans-serif" font-size="14" lengthAdjust="spacing" textLength="155" x="797" y="2102.752">ClosedInterval(min, max)</text><ellipse cx="788" cy="2116.1328" fill="#84BE84" rx="3" ry="3" style="stroke:#038048;stroke-width:1.0;"/><text fill="#000000" font-family="sans-serif" font-size="14" lengthAdjust="spacing" textLength="162" x="797" y="2120.3613">boolean isIncluded(value)</text></g><!--MD5=[5f3eff46017ea40d2ca7f35522a8d7fb]
reverse link Player to UserPlayer--><g id="link_Player_UserPlayer"><path d="M491.86,656.68 C452.4,699.22 406.91,751.75 371,803 C334.8,854.67 301.54,919.77 281.76,961.15 " fill="none" id="Player-backto-UserPlayer" style="stroke:#181818;stroke-width:1.0;"/><polygon fill="none" points="486.76,651.88,505.54,642.07,496.98,661.45,486.76,651.88" style="stroke:#181818;stroke-width:1.0;"/></g><!--MD5=[4aaf64a3b46ac69571bc27f36998f581]
reverse link Player to MachinePlayer--><g id="link_Player_MachinePlayer"><path d="M561.21,661.87 C543.43,747.99 517.91,871.66 503.03,943.72 " fill="none" id="Player-backto-MachinePlayer" style="stroke:#181818;stroke-width:1.0;"/><polygon fill="none" points="554.37,660.37,565.27,642.19,568.08,663.2,554.37,660.37" style="stroke:#181818;stroke-width:1.0;"/></g><!--MD5=[cdfec8ce64db74be1451ee2d456ce1da]
reverse link MachinePlayer to RandomMachinePlayer--><g id="link_MachinePlayer_RandomMachinePlayer"><path d="M455.99,1080.7 C421.57,1156.1 370.06,1268.95 340.68,1333.31 " fill="none" id="MachinePlayer-backto-RandomMachinePlayer" style="stroke:#181818;stroke-width:1.0;"/><polygon fill="none" points="449.67,1077.68,464.35,1062.39,462.41,1083.49,449.67,1077.68" style="stroke:#181818;stroke-width:1.0;"/></g><!--MD5=[4a63ead66e3e8e448743dc15b143c540]
reverse link RandomMachinePlayer to TrickyRandomMachinePlayer--><g id="link_RandomMachinePlayer_TrickyRandomMachinePlayer"><path d="M318.4,1454.66 C318.79,1521.35 319.37,1620.31 319.71,1679.36 " fill="none" id="RandomMachinePlayer-backto-TrickyRandomMachinePlayer" style="stroke:#181818;stroke-width:1.0;"/><polygon fill="none" points="311.41,1454.69,318.29,1434.65,325.4,1454.61,311.41,1454.69" style="stroke:#181818;stroke-width:1.0;"/></g><!--MD5=[b9f1e39ad85d50fe6f3a071a4341c320]
link Game to Turn--><g id="link_Game_Turn"><path codeLine="155" d="M649,173.12 C649,173.12 649,208.56 649,225.48 " fill="none" id="Game-Turn" style="stroke:#181818;stroke-width:1.0;"/><polygon fill="#181818" points="649,238.59,653,229.59,649,233.59,645,229.59,649,238.59" style="stroke:#181818;stroke-width:1.0;"/><line style="stroke:#181818;stroke-width:1.0;" x1="649" x2="649" y1="233.59" y2="225.59"/><polygon fill="#181818" points="649,161.12,645,167.12,649,173.12,653,167.12,649,161.12" style="stroke:#181818;stroke-width:1.0;"/><text fill="#000000" font-family="sans-serif" font-size="13" lengthAdjust="spacing" textLength="22" x="650" y="205.4951">turn</text></g><!--MD5=[15c8f9ca3aac13d865864b4eb5314ef1]
link Game to Board--><g id="link_Game_Board"><path codeLine="156" d="M724.8626,170.6003 C724.8626,170.6003 756.07,215.64 767,239 C848.2,412.59 871.07,631 875.48,789.62 " fill="none" id="Game-Board" style="stroke:#181818;stroke-width:1.0;"/><polygon fill="#181818" points="875.81,802.85,879.5913,793.756,875.6892,797.8515,871.5936,793.9493,875.81,802.85" style="stroke:#181818;stroke-width:1.0;"/><line style="stroke:#181818;stroke-width:1.0;" x1="875.6892" x2="875.48" y1="797.8515" y2="789.86"/><polygon fill="#181818" points="717.61,161.04,718.0496,168.2377,724.8626,170.6003,724.4231,163.4026,717.61,161.04" style="stroke:#181818;stroke-width:1.0;"/><text fill="#000000" font-family="sans-serif" font-size="13" lengthAdjust="spacing" textLength="32" x="839" y="454.4951">board</text></g><!--MD5=[ddcb99f46646a8b6790e04143c0a34ed]
link Game to YesNoDialog--><g id="link_Game_YesNoDialog"><path codeLine="157" d="M574.96,161.12 C546.53,190.34 514.21,223.56 486.25,252.31 " fill="none" id="Game-to-YesNoDialog" style="stroke:#181818;stroke-width:1.0;stroke-dasharray:7.0,7.0;"/><polygon fill="#181818" points="482.51,256.15,491.6515,252.4848,485.9952,252.5648,485.9152,246.9085,482.51,256.15" style="stroke:#181818;stroke-width:1.0;"/></g><!--MD5=[d81713d91ad05be3b975338c4816ee0b]
link Turn to Player--><g id="link_Turn_Player"><path codeLine="158" d="M621.5368,421.7993 C621.5368,421.7993 611.16,458.2 606.29,475.29 " fill="none" id="Turn-Player" style="stroke:#181818;stroke-width:1.0;"/><polygon fill="#181818" points="602.71,487.85,609.0286,480.2952,604.0836,483.0424,601.3364,478.0974,602.71,487.85" style="stroke:#181818;stroke-width:1.0;"/><line style="stroke:#181818;stroke-width:1.0;" x1="604.0836" x2="606.275" y1="483.0424" y2="475.35"/><polygon fill="#181818" points="624.83,410.26,619.337,414.9319,621.5368,421.7993,627.0298,417.1274,624.83,410.26" style="stroke:#181818;stroke-width:1.0;"/><text fill="#000000" font-family="sans-serif" font-size="13" lengthAdjust="spacing" textLength="42" x="616" y="454.4951">players</text><text fill="#000000" font-family="sans-serif" font-size="13" lengthAdjust="spacing" textLength="7" x="597.4456" y="477.2624">2</text></g><!--MD5=[aeb9c8b6d1fa4b3f4e931948f58ad7cf]
link Turn to Board--><g id="link_Turn_Board"><path codeLine="159" d="M695.71,410.06 C708.23,434.73 721.03,462.04 731,488 C769.31,587.77 801.56,702.2 825.42,797.73 " fill="none" id="Turn-to-Board" style="stroke:#181818;stroke-width:1.0;"/><polygon fill="#181818" points="826.69,802.84,828.3877,793.1386,825.4773,797.9893,820.6266,795.0789,826.69,802.84" style="stroke:#181818;stroke-width:1.0;"/><text fill="#000000" font-family="sans-serif" font-size="13" lengthAdjust="spacing" textLength="32" x="782" y="570.4951">board</text></g><!--MD5=[78b14222b34f68066921d914ef484ddc]
link Turn to BoundedIntDialog--><g id="link_Turn_BoundedIntDialog"><path codeLine="160" d="M548.26,399.91 C511.04,427.5 468.54,459.1 430,488 C347.66,549.75 253.42,621.33 191.1,668.79 " fill="none" id="Turn-to-BoundedIntDialog" style="stroke:#181818;stroke-width:1.0;stroke-dasharray:7.0,7.0;"/><polygon fill="#181818" points="187.05,671.88,196.6321,669.6032,191.0258,668.8481,191.781,663.2418,187.05,671.88" style="stroke:#181818;stroke-width:1.0;"/></g><!--MD5=[62025e790a28cb1b74aa087b9f161477]
link BoundedIntDialog to ClosedInterval--><g id="link_BoundedIntDialog_ClosedInterval"><path codeLine="161" d="M121.52,773.09 C120.67,865.25 119,1069.17 119,1241 C119,1241 119,1241 119,1731 C119,1805.53 101.97,1841.64 154,1895 C239.23,1982.41 595.51,2035.05 771.6,2056.21 " fill="none" id="BoundedIntDialog-to-ClosedInterval" style="stroke:#181818;stroke-width:1.0;stroke-dasharray:7.0,7.0;"/><polygon fill="#181818" points="776.76,2056.82,768.3041,2051.7704,771.796,2056.2209,767.3456,2059.7128,776.76,2056.82" style="stroke:#181818;stroke-width:1.0;"/></g><!--MD5=[ebf52a6f230ff8b0d594dd9ce4cd7c5b]
link Player to Color--><g id="link_Player_Color"><path codeLine="162" d="M593.3955,654.0835 C593.3955,654.0835 606.26,754.07 611,803 C626.58,963.93 637.93,1150.57 644.25,1267.73 " fill="none" id="Player-Color" style="stroke:#181818;stroke-width:1.0;"/><polygon fill="#181818" points="644.96,1280.96,648.4798,1271.7616,644.6963,1275.967,640.491,1272.1834,644.96,1280.96" style="stroke:#181818;stroke-width:1.0;"/><line style="stroke:#181818;stroke-width:1.0;" x1="644.6963" x2="644.265" y1="1275.967" y2="1267.98"/><polygon fill="#181818" points="591.8,642.19,588.6332,648.6686,593.3955,654.0835,596.5622,647.6049,591.8,642.19" style="stroke:#181818;stroke-width:1.0;"/><text fill="#000000" font-family="sans-serif" font-size="13" lengthAdjust="spacing" textLength="28" x="642" y="1008.4951">color</text></g><!--MD5=[c1f7e88598f78d9459764ed93737eb14]
link Player to Board--><g id="link_Player_Board"><path codeLine="163" d="M663.54,642.1 C671.73,651.69 679.43,661.75 686,672 C711.89,712.37 702.48,730.14 724,773 C728.2,781.37 732.64,789.82 737.24,798.28 " fill="none" id="Player-to-Board" style="stroke:#181818;stroke-width:1.0;"/><polygon fill="#181818" points="739.81,802.99,738.9985,793.1746,737.4097,798.6038,731.9806,797.0151,739.81,802.99" style="stroke:#181818;stroke-width:1.0;"/><text fill="#000000" font-family="sans-serif" font-size="13" lengthAdjust="spacing" textLength="32" x="725" y="727.9951">board</text></g><!--MD5=[e8e56f95b2bfb8e03c3cdf9f0e0c50ee]
link Board to Color--><g id="link_Board_Color"><path codeLine="164" d="M748.7985,1213.5782 C748.7985,1213.5782 726.5,1251.8 716.31,1269.29 " fill="none" id="Board-Color" style="stroke:#181818;stroke-width:1.0;"/><polygon fill="#181818" points="709.7,1280.62,717.6927,1274.8653,712.2214,1276.3023,710.7844,1270.831,709.7,1280.62" style="stroke:#181818;stroke-width:1.0;"/><line style="stroke:#181818;stroke-width:1.0;" x1="712.2214" x2="716.25" y1="1276.3023" y2="1269.395"/><polygon fill="#181818" points="754.84,1203.21,748.3632,1206.3803,748.7985,1213.5782,755.2753,1210.408,754.84,1203.21" style="stroke:#181818;stroke-width:1.0;"/><text fill="#000000" font-family="sans-serif" font-size="13" lengthAdjust="spacing" textLength="35" x="736" y="1247.4951">colors</text><text fill="#000000" font-family="sans-serif" font-size="13" lengthAdjust="spacing" textLength="21" x="692.1594" y="1270.279">6x7</text></g><!--MD5=[74961bfc5f5682abb8348413ea1a208a]
link Board to LinePositioner--><g id="link_Board_LinePositioner"><path codeLine="165" d="M1004.55,1169.41 C1033.93,1205.8 1064.29,1243.4 1091.19,1276.72 " fill="none" id="Board-to-LinePositioner" style="stroke:#181818;stroke-width:1.0;stroke-dasharray:7.0,7.0;"/><polygon fill="#181818" points="1094.45,1280.76,1091.9002,1271.2469,1091.3057,1276.8724,1085.6801,1276.2779,1094.45,1280.76" style="stroke:#181818;stroke-width:1.0;"/></g><!--MD5=[a416983a2bb8ca1c26830059e75eb56a]
link Board to Coordinate--><g id="link_Board_Coordinate"><path codeLine="166" d="M1004.72,1036.07 C1125.57,1072.92 1296.34,1146.44 1376,1281 C1502.61,1494.85 1367.83,1790.34 1273.44,1951.22 " fill="none" id="Board-to-Coordinate" style="stroke:#181818;stroke-width:1.0;stroke-dasharray:7.0,7.0;"/><polygon fill="#181818" points="1270.66,1955.94,1278.6701,1950.2095,1273.1945,1951.63,1271.774,1946.1543,1270.66,1955.94" style="stroke:#181818;stroke-width:1.0;"/></g><!--MD5=[a676224b545de2f8b00c905b7798379b]
link Board to Direction--><g id="link_Board_Direction"><path codeLine="167" d="M913.56,1203.07 C937.49,1315 967.04,1453.22 989.84,1559.87 " fill="none" id="Board-to-Direction" style="stroke:#181818;stroke-width:1.0;stroke-dasharray:7.0,7.0;"/><polygon fill="#181818" points="990.92,1564.93,992.9531,1555.2933,989.8763,1560.0402,985.1294,1556.9633,990.92,1564.93" style="stroke:#181818;stroke-width:1.0;"/></g><!--MD5=[ddff36571b27f11d9c670e486a6ad82f]
link Board to ClosedInterval--><g id="link_Board_ClosedInterval"><path codeLine="168" d="M871,1203.01 C871,1447.44 871,1848.66 871,2003.39 " fill="none" id="Board-to-ClosedInterval" style="stroke:#181818;stroke-width:1.0;stroke-dasharray:7.0,7.0;"/><polygon fill="#181818" points="871,2008.79,875,1999.79,871,2003.79,867,1999.79,871,2008.79" style="stroke:#181818;stroke-width:1.0;"/></g><!--MD5=[5d952898b7636fd86f70dd14f682470e]
link LinePositioner to Coordinate--><g id="link_LinePositioner_Coordinate"><path codeLine="169" d="M1180.5095,1499.0943 C1180.5095,1499.0943 1190.3,1816.78 1194.18,1942.85 " fill="none" id="LinePositioner-Coordinate" style="stroke:#181818;stroke-width:1.0;"/><polygon fill="#181818" points="1194.58,1955.98,1198.3013,1946.8612,1194.4262,1950.9824,1190.3051,1947.1073,1194.58,1955.98" style="stroke:#181818;stroke-width:1.0;"/><line style="stroke:#181818;stroke-width:1.0;" x1="1194.4262" x2="1194.18" y1="1950.9824" y2="1942.99"/><polygon fill="#181818" points="1180.14,1487.1,1176.3266,1493.2203,1180.5095,1499.0943,1184.3228,1492.974,1180.14,1487.1" style="stroke:#181818;stroke-width:1.0;"/><text fill="#000000" font-family="sans-serif" font-size="13" lengthAdjust="spacing" textLength="31" x="1193" y="1735.4951">origin</text></g><!--MD5=[760d7c7b5bd70a997a7acf37da79f56b]
link LinePositioner to Direction--><g id="link_LinePositioner_Direction"><path codeLine="170" d="M1132.1,1487.28 C1122,1510.31 1111.01,1535.34 1100.06,1560.28 " fill="none" id="LinePositioner-to-Direction" style="stroke:#181818;stroke-width:1.0;"/><polygon fill="#181818" points="1098.02,1564.94,1105.3018,1558.3086,1100.0308,1560.3622,1097.9772,1555.0912,1098.02,1564.94" style="stroke:#181818;stroke-width:1.0;"/><text fill="#000000" font-family="sans-serif" font-size="13" lengthAdjust="spacing" textLength="49" x="1116" y="1531.4951">direction</text></g><!--MD5=[b2f5c1c6a25b27b22443bb927c66a9dd]
link Direction to Coordinate--><g id="link_Direction_Coordinate"><path codeLine="171" d="M1115.4518,1905.7399 C1115.4518,1905.7399 1128.75,1931.72 1134.88,1943.69 " fill="none" id="Direction-Coordinate" style="stroke:#181818;stroke-width:1.0;"/><polygon fill="#181818" points="1140.95,1955.55,1140.4061,1945.7162,1138.6701,1951.1001,1133.2862,1949.364,1140.95,1955.55" style="stroke:#181818;stroke-width:1.0;"/><line style="stroke:#181818;stroke-width:1.0;" x1="1138.6701" x2="1135.02" y1="1951.1001" y2="1943.975"/><polygon fill="#181818" points="1109.98,1895.06,1109.1559,1902.2239,1115.4518,1905.7399,1116.2758,1898.576,1109.98,1895.06" style="stroke:#181818;stroke-width:1.0;"/></g><!--MD5=[8651f4af7670d559608910e50ffccb0a]
link Direction to ClosedInterval--><g id="link_Direction_ClosedInterval"><path codeLine="172" d="M950.32,1895.06 C932.44,1933.8 914.44,1972.82 900.12,2003.88 " fill="none" id="Direction-to-ClosedInterval" style="stroke:#181818;stroke-width:1.0;stroke-dasharray:7.0,7.0;"/><polygon fill="#181818" points="897.85,2008.79,905.2404,2002.2798,899.9362,2004.246,897.97,1998.9419,897.85,2008.79" style="stroke:#181818;stroke-width:1.0;"/></g><!--MD5=[33c9564c12216840262f6362fb4cdcef]
@startuml

class Game {
  + {static} void main(args)
  - Game()
  - void reset()
  - void playGames()
  - void playGame()
  - boolean isResumed()
}

class YesNoDialog {
	- String answer;
	+ void read(String message)	
	+ boolean isAffirmative()	
	- char getAnswer()
	+ boolean isNegative() 
}

class Turn {
  {static} int NUMBER_PLAYERS = 2;
  - int activePlayer;
  Turn(board)
  void reset()
  void dropToken()
  void writeResult()
  Player getActivePlayer()
}

class BoundedIntDialog {
  - ClosedInterval LIMITS;
  public BoundedIntDialog(min, max)
  public int read(String message)
}

abstract class Player {
  Player(color, board)
  void dropToken()
  ~ void writePlayer()
  ~ abstract int getColumn();
  public boolean isComplete(int column)
  public Color getColor()
}

class UserPlayer extends Player {
  UserPlayer(color, board)
  ~ int getColumn()
}

abstract class MachinePlayer extends Player {
  MachinePlayer(color, board)
  ~ int getColumn()
  ~ abstract int _getColumn()
  ~ void writeColumn(column)
}

class RandomMachinePlayer extends MachinePlayer {
  RandomMachinePlayer(color, board)
  ~ int _getColumn()
  ~ int getRandomColumn()
}

class TrickyRandomMachinePlayer extends RandomMachinePlayer {
    TrickyRandomMachinePlayer(color, board)
    ~ int calculateColumn()
    - void moveRandomTopFrom(origin)
}

class Board {
  - Coordinate lastDrop;
  Board()
  void reset()
  - void setColor(coordinate, color)
  void dropToken(column, color)
  boolean isComplete(column)
  boolean isComplete()
  void writeln()
  - void writeHorizontal()
  boolean isWinner()
  - boolean isWinner(coordinates)
  void writeResult()
  - boolean isOccupied(coordinate, color)
  - boolean isEmpty(coordinate)
  - Color getColor(coordinate)
  boolean isTop(column, color)
  - Coordinate getTop(column) 
  - boolean isEmpty(column) 
  void removeTop(column) 
  boolean isEmpty()
}

class LinePositioner {
  {static} int LENGTH = 4;
  - {static} final int MAX_DISPLACEMENT = LENGTH - 1;
  - int displacements;
  LinePositioner(origin)
  boolean hasNextPosition()
  List<Coordinate> nextPosition()
  - List<Coordinate> getCoordinates()
  - List<Coordinate> getDirectionCoordinates()
  - List<Coordinate> getShiftedCoordinates(coordinates)
}

enum Color {
  RED
  YELLOW
  NULL
  - {static} Color[] PLAYERS = {Color.RED, Color.YELLOW};
  + {static} Color get(ordinal)
  + boolean isNull()
  + Color getOpposite()
  + char getCode()
  + String toString()
}

enum Direction {
  NORTH
  NORTH_EAST
  EAST
  SOUTH_EAST
  SOUTH
  SOUTH_WEST
  WEST
  NORTH_WEST
  NULL
  - final ClosedInterval LIMITS

  - Direction()
  - Direction(row, column)
  + Direction next()
	+ Coordinate next(coordinate)
	+ Direction getOpposite()
	- boolean isNull()
}

class Coordinate {
	- int column;
	- int row;
	public Coordinate() 
	public Coordinate(row, column)
	public Coordinate copy()
	public int getRow()
	public int getColumn() 
	public String toString() 
	public int hashCode()
	public boolean equals(obj) 
}

class ClosedInterval {
	- int min;
	- int max;
	+ ClosedInterval(min, max)
	+ boolean isIncluded(value)
}

Game *-down-> Turn : turn
Game *-down-> Board : board
Game .down.> YesNoDialog
Turn *-down-> "2" Player : players
Turn -down-> Board : board
Turn .down.> BoundedIntDialog
BoundedIntDialog .down.> ClosedInterval
Player *-down-> Color : color
Player -down-> Board : board
Board *-down-> "6x7" Color : colors
Board .down.> LinePositioner
Board .down.> Coordinate
Board .down.> Direction
Board .down.> ClosedInterval
LinePositioner *-down-> Coordinate : origin
LinePositioner -down-> Direction : direction
Direction *-down-> Coordinate
Direction .down.> ClosedInterval

@enduml

PlantUML version 1.2022.7(Mon Aug 22 19:01:30 CEST 2022)
(GPL source distribution)
Java Runtime: Java(TM) SE Runtime Environment
JVM: Java HotSpot(TM) 64-Bit Server VM
Default Encoding: Cp1252
Language: es
Country: ES
--></g></svg>